<mxfile host="65bd71144e">
    <diagram id="FbsgB7FgEEA36m5LQYhO" name="Page-1">
        <mxGraphModel dx="760" dy="1155" grid="1" gridSize="10" guides="1" tooltips="1" connect="1" arrows="1" fold="1" page="1" pageScale="1" pageWidth="850" pageHeight="1100" background="#ffffff" math="0" shadow="0">
            <root>
                <mxCell id="0"/>
                <mxCell id="1" parent="0"/>
                <mxCell id="2" value="" style="rounded=0;whiteSpace=wrap;html=1;dashed=1;dashPattern=8 8;" vertex="1" parent="1">
                    <mxGeometry x="180" y="435" width="470" height="250" as="geometry"/>
                </mxCell>
                <mxCell id="10" style="edgeStyle=none;html=1;exitX=1;exitY=0.5;exitDx=0;exitDy=0;exitPerimeter=0;" edge="1" parent="1" source="4" target="7">
                    <mxGeometry relative="1" as="geometry"/>
                </mxCell>
                <mxCell id="4" value="" style="outlineConnect=0;dashed=0;verticalLabelPosition=bottom;verticalAlign=top;align=center;html=1;shape=mxgraph.aws3.mobile_client;fillColor=#D2D3D3;gradientColor=none;" vertex="1" parent="1">
                    <mxGeometry x="80" y="528.5" width="40.5" height="63" as="geometry"/>
                </mxCell>
                <mxCell id="6" value="" style="shape=image;verticalLabelPosition=bottom;labelBackgroundColor=default;verticalAlign=top;aspect=fixed;imageAspect=0;image=data:image/svg+xml,PHN2ZyB4bWxuczp4bGluaz0iaHR0cDovL3d3dy53My5vcmcvMTk5OS94bGluayIgeG1sbnM9Imh0dHA6Ly93d3cudzMub3JnLzIwMDAvc3ZnIiB4bWw6c3BhY2U9InByZXNlcnZlIiBzdHlsZT0iZW5hYmxlLWJhY2tncm91bmQ6bmV3IDAgMCAzNzQgOTMuNTsiIHZpZXdCb3g9IjAgMCAzNzQgOTMuNSIgeT0iMHB4IiB4PSIwcHgiIGlkPSJMYXllcl8xIiB2ZXJzaW9uPSIxLjEiPgo8c3R5bGUgdHlwZT0idGV4dC9jc3MiPgoJLnN0MHtmaWxsOiM2OEJDNzE7fQoJLnN0MXtmaWxsOiM2N0IyNzk7fQoJLnN0MntmaWxsOiNGRkZGRkY7fQo8L3N0eWxlPgo8Zz4KCTxwYXRoIGQ9Ik0yOTYuNCw1MC4xbC0yLjctNi43aC0xMy4ybC0yLjUsNi43aC05bDE0LjMtMzQuMmg4bDE0LjIsMzQuMkgyOTYuNHogTTI4Ny4zLDI1bC00LjMsMTEuN2g4LjZMMjg3LjMsMjV6IE0yNjYuOCwzNi42JiMxMDsmIzk7JiM5O2MwLDItMC4zLDMuOC0xLDUuNWMtMC43LDEuNi0xLjcsMy4xLTMsNC4yYy0xLjMsMS4yLTIuOSwyLjEtNC43LDIuOGMtMS44LDAuNy0zLjksMS02LjEsMWMtMi4zLDAtNC4zLTAuMy02LjItMSYjMTA7JiM5OyYjOTtjLTEuOC0wLjctMy40LTEuNi00LjYtMi44Yy0xLjMtMS4yLTIuMy0yLjYtMi45LTQuMmMtMC43LTEuNi0xLTMuNS0xLTUuNVYxNS45aDguM1YzNmMwLDAuOSwwLjEsMS44LDAuNCwyLjYmIzEwOyYjOTsmIzk7YzAuMiwwLjgsMC42LDEuNSwxLjEsMi4yYzAuNSwwLjYsMS4yLDEuMiwyLDEuNWMwLjgsMC40LDEuOCwwLjYsMywwLjZzMi4yLTAuMiwzLTAuNmMwLjgtMC40LDEuNS0wLjksMi0xLjUmIzEwOyYjOTsmIzk7YzAuNS0wLjYsMC45LTEuNCwxLjEtMi4yYzAuMi0wLjgsMC4zLTEuNywwLjMtMi42VjE1LjloOC40VjM2LjZMMjY2LjgsMzYuNnogTTIzMC4zLDQ3LjNjLTEuNywwLjgtMy42LDEuNS01LjksMiYjMTA7JiM5OyYjOTtjLTIuMiwwLjUtNC43LDAuOC03LjMsMC44Yy0yLjcsMC01LjMtMC40LTcuNi0xLjJjLTIuMy0wLjgtNC4zLTItNS45LTMuNWMtMS43LTEuNS0zLTMuMy0zLjktNS40Yy0wLjktMi4xLTEuNC00LjQtMS40LTcmIzEwOyYjOTsmIzk7YzAtMi42LDAuNS01LDEuNC03LjFjMC45LTIuMSwyLjItMy45LDMuOS01LjRjMS43LTEuNSwzLjctMi43LDUuOS0zLjRjMi4zLTAuOCw0LjctMS4yLDcuMy0xLjJjMi43LDAsNS4yLDAuNCw3LjUsMS4yJiMxMDsmIzk7JiM5O2MyLjMsMC44LDQuMiwxLjgsNS42LDMuMWwtNS4yLDUuNmMtMC44LTAuOS0xLjktMS42LTMuMi0yLjJjLTEuMy0wLjYtMi44LTAuOS00LjUtMC45Yy0xLjQsMC0yLjgsMC4zLTQsMC44JiMxMDsmIzk7JiM5O2MtMS4yLDAuNS0yLjMsMS4yLTMuMiwyLjFjLTAuOSwwLjktMS42LDItMi4xLDMuMmMtMC41LDEuMy0wLjgsMi43LTAuNyw0LjFjMCwxLjUsMC4yLDIuOSwwLjcsNC4xYzAuNCwxLjMsMS4xLDIuMywyLDMuMiYjMTA7JiM5OyYjOTtjMC45LDAuOSwyLDEuNiwzLjMsMi4xYzEuMywwLjUsMi44LDAuOCw0LjUsMC44YzEsMCwxLjktMC4xLDIuNy0wLjJjMC45LTAuMSwxLjctMC40LDIuNC0wLjd2LTUuOWgtNi41di02LjNoMTQuMVY0Ny4zTDIzMC4zLDQ3LjMmIzEwOyYjOTsmIzk7eiBNMzc0LDMyLjljMCwzLTAuNiw1LjYtMS43LDcuOGMtMSwyLjEtMi41LDMuOS00LjQsNS40Yy0xLjgsMS40LTMuOSwyLjUtNi4yLDMuMWMtMi4zLDAuNy00LjYsMS03LDFoLTEyLjhWMTUuOWgxMi40JiMxMDsmIzk7JiM5O2MyLjQsMCw0LjgsMC4zLDcuMiwwLjhjMi4zLDAuNSw0LjQsMS41LDYuMywyLjhjMS44LDEuMywzLjMsMy4xLDQuNCw1LjJDMzczLjUsMjcsMzc0LDI5LjcsMzc0LDMyLjlMMzc0LDMyLjl6IE0zNjUuNCwzMi45JiMxMDsmIzk7JiM5O2MwLTEuOS0wLjMtMy41LTAuOS00LjhjLTAuNi0xLjItMS40LTIuMy0yLjUtM2MtMS4xLTAuOC0yLjMtMS4zLTMuNi0xLjZjLTEuNC0wLjMtMi43LTAuNS00LjEtMC41aC00LjF2MjBoMy45JiMxMDsmIzk7JiM5O2MxLjUsMCwyLjktMC4yLDQuMy0wLjVjMS4zLTAuMywyLjUtMC45LDMuNi0xLjdjMS4xLTAuOCwxLjktMS45LDIuNS0zLjFDMzY1LjEsMzYuNCwzNjUuNCwzNC44LDM2NS40LDMyLjlMMzY1LjQsMzIuOXomIzEwOyYjOTsmIzk7IE0xOTMuOCwzMi45YzAsMy0wLjYsNS42LTEuNyw3LjhjLTEsMi4xLTIuNSwzLjktNC40LDUuNGMtMS44LDEuNC0zLjksMi41LTYuMiwzLjFjLTIuMywwLjctNC42LDEtNywxaC0xMi44VjE1LjloMTIuNCYjMTA7JiM5OyYjOTtjMi40LDAsNC44LDAuMyw3LjIsMC44YzIuMywwLjUsNC40LDEuNSw2LjMsMi44YzEuOCwxLjMsMy4zLDMuMSw0LjQsNS4yQzE5My4yLDI3LDE5My44LDI5LjcsMTkzLjgsMzIuOUwxOTMuOCwzMi45eiBNMTg1LjIsMzIuOSYjMTA7JiM5OyYjOTtjMC0xLjktMC4zLTMuNS0wLjktNC44Yy0wLjYtMS4yLTEuNC0yLjMtMi41LTNjLTEuMS0wLjgtMi4zLTEuMy0zLjYtMS42Yy0xLjQtMC4zLTIuNy0wLjUtNC4xLTAuNWgtNC4xdjIwaDMuOSYjMTA7JiM5OyYjOTtjMS41LDAsMi45LTAuMiw0LjMtMC41YzEuMy0wLjMsMi41LTAuOSwzLjYtMS43YzEuMS0wLjgsMS45LTEuOSwyLjUtMy4xQzE4NC45LDM2LjQsMTg1LjIsMzQuOCwxODUuMiwzMi45eiBNMTUwLjQsNTAuMWwtMi43LTYuNyYjMTA7JiM5OyYjOTtoLTEzLjJsLTIuNSw2LjdoLTlsMTQuMy0zNC4yaDhsMTQuMiwzNC4ySDE1MC40eiBNMTQxLjIsMjVsLTQuMywxMS43aDguNkwxNDEuMiwyNXogTTMyOC4xLDUwLjFsLTcuMi0xMy42aC0yLjd2MTMuNmgtNy45VjE1LjkmIzEwOyYjOTsmIzk7aDEyLjhjMS42LDAsMy4yLDAuMiw0LjcsMC41YzEuNSwwLjMsMi45LDAuOSw0LjEsMS43YzEuMiwwLjgsMi4yLDEuOSwyLjksMy4yYzAuNywxLjMsMS4xLDMsMS4xLDQuOWMwLDIuMy0wLjYsNC4zLTEuOCw1LjkmIzEwOyYjOTsmIzk7Yy0xLjIsMS42LTIuOSwyLjctNS4xLDMuNGw4LjcsMTQuNkgzMjguMXogTTMyNy43LDI2LjRjMC0wLjgtMC4yLTEuNS0wLjUtMmMtMC4zLTAuNS0wLjgtMC45LTEuMy0xLjJjLTAuNS0wLjMtMS4xLTAuNS0xLjctMC42JiMxMDsmIzk7JiM5O2MtMC42LTAuMS0xLjItMC4xLTEuOS0wLjFoLTQuM3Y4aDMuOGMwLjcsMCwxLjMtMC4xLDItMC4yYzAuNy0wLjEsMS4zLTAuMywxLjktMC42YzAuNi0wLjMsMS0wLjcsMS40LTEuMyYjMTA7JiM5OyYjOTtDMzI3LjYsMjcuOSwzMjcuNywyNy4yLDMyNy43LDI2LjR6IE0xMjUuMyw4Ni4zVjY2LjRoMi4ydjguOGgxMS4xdi04LjhoMi4ydjE5LjloLTIuMnYtOC45aC0xMS4xdjguOUwxMjUuMyw4Ni4zTDEyNS4zLDg2LjN6JiMxMDsmIzk7JiM5OyBNMTU1LjIsODYuNmMtNS45LDAtOS44LTQuNy05LjgtMTAuM2MwLTUuNSw0LTEwLjMsOS44LTEwLjNjNS45LDAsOS44LDQuNyw5LjgsMTAuM0MxNjUsODEuOCwxNjEsODYuNiwxNTUuMiw4Ni42eiBNMTU1LjIsODQuNSYjMTA7JiM5OyYjOTtjNC40LDAsNy41LTMuNiw3LjUtOC4yYzAtNC41LTMuMi04LjItNy42LTguMnMtNy41LDMuNi03LjUsOC4yQzE0Ny42LDgwLjksMTUwLjgsODQuNSwxNTUuMiw4NC41eiBNMTY5LjYsODYuM1Y2Ni40aDIuMmw3LDEwLjgmIzEwOyYjOTsmIzk7bDctMTAuOGgyLjJ2MTkuOWgtMi4yVjcwLjJsLTcsMTAuNmgtMC4xbC03LTEwLjZ2MTYuMUgxNjkuNkwxNjkuNiw4Ni4zeiBNMTkzLjQsODYuM1Y2Ni40aDEzLjl2MmgtMTEuN3Y2LjhoMTAuNXYyaC0xMC41djYuOWgxMS45JiMxMDsmIzk7JiM5O3YyQzIwNy41LDg2LjMsMTkzLjQsODYuMywxOTMuNCw4Ni4zeiIvPgoJPGcgaWQ9ImxvZ28iPgoJCTxnIHRyYW5zZm9ybT0idHJhbnNsYXRlKDEyLjAwMDAwMCwgMTIuMDAwMDAwKSIgaWQ9Ikdyb3VwLTEwIj4KCQkJPGcgaWQ9Ikdyb3VwLTkiPgoJCQkJPGcgaWQ9Ikdyb3VwLTgiPgoJCQkJCTxnIGlkPSJHcm91cC03Ij4KCQkJCQkJPHBhdGggZD0iTTMzLjYtMTJDMTkuNC0xMiwyLjItOC42LTEyLTEuM2MwLDE1LjktMC4yLDU1LjcsNDUuNiw4Mi44Qzc5LjUsNTQuNCw3OS4zLDE0LjcsNzkuMy0xLjMmIzEwOyYjOTsmIzk7JiM5OyYjOTsmIzk7JiM5OyYjOTtDNjUuMS04LjYsNDcuOS0xMiwzMy42LTEyTDMzLjYtMTJ6IiBjbGFzcz0ic3QwIiBpZD0iUGF0aCIvPgoJCQkJCQk8cGF0aCBkPSJNMzMuNiw4MS41Qy0xMi4yLDU0LjQtMTIsMTQuNy0xMi0xLjNDMi4xLTguNiwxOS4zLTEyLDMzLjYtMTImIzEwOyYjOTsmIzk7JiM5OyYjOTsmIzk7JiM5OyYjOTtDMzMuNi0xMiwzMy42LDgxLjUsMzMuNiw4MS41eiIgY2xhc3M9InN0MSIgaWQ9IkNvbWJpbmVkLVNoYXBlIi8+CgkJCQkJPC9nPgoJCQkJCTxwYXRoIGQ9Ik0zMiw1MC40bDI3LjYtMzcuMmMtMi0xLjYtMy44LTAuNS00LjgsMC40bDAsMGwtMjMsMjMuOWwtOC43LTEwLjRDMTguOSwyMi40LDEzLjMsMjYsMTIsMjcmIzEwOyYjOTsmIzk7JiM5OyYjOTsmIzk7JiM5O0wzMiw1MC40IiBjbGFzcz0ic3QyIiBpZD0iRmlsbC0xMSIvPgoJCQkJPC9nPgoJCQk8L2c+CgkJPC9nPgoJPC9nPgo8L2c+Cjwvc3ZnPg==;" vertex="1" parent="1">
                    <mxGeometry x="460" y="541.5" width="147.22" height="37" as="geometry"/>
                </mxCell>
                <mxCell id="7" value="" style="image;aspect=fixed;perimeter=ellipsePerimeter;html=1;align=center;shadow=0;dashed=0;spacingTop=3;image=img/lib/active_directory/firewall.svg;" vertex="1" parent="1">
                    <mxGeometry x="277" y="535" width="30.5" height="50" as="geometry"/>
                </mxCell>
                <mxCell id="8" value="Firewall&lt;div&gt;Port 53 -&amp;gt; 10053&lt;/div&gt;" style="text;html=1;align=center;verticalAlign=middle;whiteSpace=wrap;rounded=0;fontSize=15;" vertex="1" parent="1">
                    <mxGeometry x="227" y="578.5" width="140" height="50" as="geometry"/>
                </mxCell>
                <mxCell id="11" value="" style="endArrow=classic;html=1;exitX=1;exitY=0.5;exitDx=0;exitDy=0;entryX=0;entryY=0.5;entryDx=0;entryDy=0;" edge="1" parent="1" source="7" target="6">
                    <mxGeometry width="50" height="50" relative="1" as="geometry">
                        <mxPoint x="360" y="610" as="sourcePoint"/>
                        <mxPoint x="410" y="560" as="targetPoint"/>
                    </mxGeometry>
                </mxCell>
                <mxCell id="12" value="Adguard Home&lt;div&gt;Port 10053&lt;/div&gt;" style="text;html=1;align=center;verticalAlign=middle;whiteSpace=wrap;rounded=0;fontSize=15;" vertex="1" parent="1">
                    <mxGeometry x="463.61" y="585" width="140" height="50" as="geometry"/>
                </mxCell>
                <mxCell id="13" value="&lt;font style=&quot;font-size: 20px;&quot;&gt;NAS&lt;/font&gt;" style="text;html=1;align=center;verticalAlign=middle;whiteSpace=wrap;rounded=0;" vertex="1" parent="1">
                    <mxGeometry x="180" y="435" width="60" height="30" as="geometry"/>
                </mxCell>
            </root>
        </mxGraphModel>
    </diagram>
</mxfile>
